<svg id="katman_1" data-name="katman 1" xmlns="http://www.w3.org/2000/svg" viewBox="0 0 1503.24 638.13"><defs><style>.cls-1,.cls-3{fill:#fbb03b;}.cls-1{stroke:#9a731f;}.cls-1,.cls-2,.cls-3,.cls-4{stroke-miterlimit:10;}.cls-1,.cls-2,.cls-3{stroke-width:18px;}.cls-2{fill:#b90039;stroke:#a2001f;}.cls-3{stroke:#d00069;}.cls-4{fill:#2ebbff;stroke:#000;}</style></defs><line class="cls-1" x1="59" y1="8.46" x2="555.22" y2="188.9"/><line class="cls-1" x1="19" y1="55.46" x2="515.22" y2="235.9"/><line class="cls-2" x1="1464.11" y1="524.68" x2="1350.11" y2="482.68"/><line class="cls-3" x1="1409.11" y1="629.68" x2="1295.11" y2="587.68"/><line class="cls-3" x1="117.11" y1="488.68" x2="3.11" y2="446.68"/><polygon class="cls-4" points="1298.61 206.18 1328 190.73 1322.39 223.46 1346.16 246.63 1313.31 251.41 1298.61 281.18 1283.92 251.41 1251.06 246.63 1274.84 223.46 1269.22 190.73 1298.61 206.18"/><polygon class="cls-4" points="1454.61 190.18 1484 174.73 1478.39 207.46 1502.16 230.63 1469.31 235.41 1454.61 265.18 1439.92 235.41 1407.06 230.63 1430.84 207.46 1425.22 174.73 1454.61 190.18"/></svg>